# xmcd
#
# Track frame offsets:
#	150
#	8770
#	20720
#	29680
#	38632
#	50102
#	66085
#	76270
#	88330
#	101952
#	109370
#	120195
#
# Disc length: 1784 seconds
#
# Revision: 0
# Processed by: cddbd v1.5.2PL0 Copyright (c) Steve Scherf et al.
# Submitted via: dBpowerAMP V4.0
#
DISCID=9f06f60c
DTITLE=american country - the best of country music
DYEAR=1900
DGENRE=Country
TTITLE0=truck driving man
TTITLE1=yesterday memories
TTITLE2=cripple creek
TTITLE3=abeline
TTITLE4=moutain dew
TTITLE5=home on the range
TTITLE6=sorrow on the rocks
TTITLE7=will the circle be unbroken 
TTITLE8=fishin"blue
TTITLE9=battle of new orleans
TTITLE10=green rocky road
TTITLE11=roosevelt and ira lee
EXTD=the best  of country music
EXTT0=
EXTT1=
EXTT2=
EXTT3=
EXTT4=
EXTT5=
EXTT6=
EXTT7=
EXTT8=
EXTT9=
EXTT10=
EXTT11=
PLAYORDER=
